<svg xmlns="http://www.w3.org/2000/svg" viewBox="0 0 320 320" role="img" aria-labelledby="title">
  <title id="title">이상해씨 스타일 초록 인형</title>
  <rect width="320" height="320" rx="40" fill="#f0fff8"/>
  <path d="M108 95c15-45 89-45 104 0 29 9 50 36 50 70 0 56-46 100-102 100S58 221 58 165c0-34 21-61 50-70z" fill="#79d7bc" stroke="#12386b" stroke-width="8" stroke-linejoin="round"/>
  <path d="M116 89c18-44 76-44 94 0-15 23-79 23-94 0z" fill="#65a95d" stroke="#12386b" stroke-width="8"/>
  <circle cx="123" cy="157" r="13" fill="#172033"/>
  <circle cx="197" cy="157" r="13" fill="#172033"/>
  <path d="M139 190c18 16 42 16 60 0" fill="none" stroke="#172033" stroke-width="8" stroke-linecap="round"/>
  <path d="M91 131 73 118m157 13 18-13" stroke="#12386b" stroke-width="8" stroke-linecap="round"/>
  <ellipse cx="160" cy="284" rx="72" ry="16" fill="#12386b" opacity=".12"/>
</svg>
